<svg width="40" height="40" viewBox="0 0 40 40" fill="none" xmlns="http://www.w3.org/2000/svg">
<path d="M4.22253 18.7304L4.22252 18.7304L4.22157 18.7332C3.42893 21.0767 3.02884 23.3453 3.02884 25.5364V31.9417C3.02884 32.7702 3.70041 33.4417 4.52884 33.4417H12.7081C13.5365 33.4417 14.2081 32.7702 14.2081 31.9417L14.2081 25.4638L14.2081 25.4596C14.185 22.7093 14.6234 20.2093 15.5157 17.9532C16.3266 15.9337 17.3054 13.9865 18.4524 12.1114C18.8737 11.4227 18.6923 10.5099 18.0075 10.0536L13.5096 7.05642L13.5096 7.05642C12.9612 6.69096 12.2228 6.71948 11.7151 7.17184C10.1828 8.53712 8.7886 10.1628 7.53114 12.0452L7.53045 12.0463C6.14042 14.1385 5.03758 16.3668 4.22253 18.7304ZM22.1422 18.7304L22.1413 18.7332C21.3486 21.0767 20.9486 23.3453 20.9486 25.5364V31.9417C20.9486 32.7702 21.6201 33.4417 22.4486 33.4417H30.6278C31.4562 33.4417 32.1278 32.7702 32.1278 31.9417L32.1278 25.4638L32.1278 25.4596C32.1047 22.7093 32.5432 20.2093 33.4354 17.9532C34.2463 15.9337 35.2251 13.9865 36.3721 12.1114C36.7935 11.4227 36.612 10.5099 35.9272 10.0536L31.4294 7.05642C30.8809 6.69096 30.1425 6.71948 29.6348 7.17184L29.9669 7.54459L29.6348 7.17184C28.1025 8.53712 26.7083 10.1628 25.4509 12.0452L25.4502 12.0463C24.0601 14.1385 22.9573 16.3668 22.1422 18.7304Z" fill="#FFE566" stroke="#FFE566"/>
</svg>
