<svg width="93" height="16" viewBox="0 0 93 16" fill="none" xmlns="http://www.w3.org/2000/svg">
<path d="M7.82524 1.30996C8.21882 0.697195 9.11444 0.697195 9.50802 1.30996L11.1834 3.91833C11.3188 4.12917 11.5284 4.28148 11.7708 4.34512L14.7692 5.13245C15.4736 5.31742 15.7504 6.1692 15.2892 6.73287L13.3262 9.13227C13.1676 9.32622 13.0875 9.57266 13.1019 9.82282L13.2796 12.9178C13.3214 13.6449 12.5968 14.1713 11.9182 13.9069L9.02967 12.7815C8.79619 12.6905 8.53706 12.6905 8.30358 12.7815L5.41502 13.9069C4.73643 14.1713 4.01186 13.6449 4.05362 12.9178L4.23138 9.82282C4.24575 9.57266 4.16568 9.32622 4.00701 9.13227L2.04401 6.73287C1.58286 6.1692 1.85963 5.31742 2.56402 5.13245L5.56245 4.34512C5.80481 4.28148 6.01445 4.12917 6.14987 3.91833L7.82524 1.30996Z" fill="#FFCE22"/>
<path d="M26.8252 1.30996C27.2188 0.697195 28.1144 0.697195 28.508 1.30996L30.1834 3.91833C30.3188 4.12917 30.5284 4.28148 30.7708 4.34512L33.7692 5.13245C34.4736 5.31742 34.7504 6.1692 34.2892 6.73287L32.3262 9.13227C32.1676 9.32622 32.0875 9.57266 32.1019 9.82282L32.2796 12.9178C32.3214 13.6449 31.5968 14.1713 30.9182 13.9069L28.0297 12.7815C27.7962 12.6905 27.5371 12.6905 27.3036 12.7815L24.415 13.9069C23.7364 14.1713 23.0119 13.6449 23.0536 12.9178L23.2314 9.82282C23.2458 9.57266 23.1657 9.32622 23.007 9.13227L21.044 6.73287C20.5829 6.1692 20.8596 5.31742 21.564 5.13245L24.5625 4.34512C24.8048 4.28148 25.0144 4.12917 25.1499 3.91833L26.8252 1.30996Z" fill="#FFCE22"/>
<path d="M45.8252 1.30996C46.2188 0.697195 47.1144 0.697195 47.508 1.30996L49.1834 3.91833C49.3188 4.12917 49.5284 4.28148 49.7708 4.34512L52.7692 5.13245C53.4736 5.31742 53.7504 6.1692 53.2892 6.73287L51.3262 9.13227C51.1676 9.32622 51.0875 9.57266 51.1019 9.82282L51.2796 12.9178C51.3214 13.6449 50.5968 14.1713 49.9182 13.9069L47.0297 12.7815C46.7962 12.6905 46.5371 12.6905 46.3036 12.7815L43.415 13.9069C42.7364 14.1713 42.0119 13.6449 42.0536 12.9178L42.2314 9.82282C42.2458 9.57266 42.1657 9.32622 42.007 9.13227L40.044 6.73287C39.5829 6.1692 39.8596 5.31742 40.564 5.13245L43.5625 4.34512C43.8048 4.28148 44.0144 4.12917 44.1499 3.91833L45.8252 1.30996Z" fill="#FFCE22"/>
<path d="M64.8252 1.30996C65.2188 0.697195 66.1144 0.697195 66.508 1.30996L68.1834 3.91833C68.3188 4.12917 68.5284 4.28148 68.7708 4.34512L71.7692 5.13245C72.4736 5.31742 72.7504 6.1692 72.2892 6.73287L70.3262 9.13227C70.1676 9.32622 70.0875 9.57266 70.1019 9.82282L70.2796 12.9178C70.3214 13.6449 69.5968 14.1713 68.9182 13.9069L66.0297 12.7815C65.7962 12.6905 65.5371 12.6905 65.3036 12.7815L62.415 13.9069C61.7364 14.1713 61.0119 13.6449 61.0536 12.9178L61.2314 9.82282C61.2458 9.57266 61.1657 9.32622 61.007 9.13227L59.044 6.73287C58.5829 6.1692 58.8596 5.31742 59.564 5.13245L62.5625 4.34512C62.8048 4.28148 63.0144 4.12917 63.1499 3.91833L64.8252 1.30996Z" fill="#FFCE22"/>
<path d="M83.8252 1.30996C84.2188 0.697195 85.1144 0.697195 85.508 1.30996L87.1834 3.91833C87.3188 4.12917 87.5284 4.28148 87.7708 4.34512L90.7692 5.13245C91.4736 5.31742 91.7504 6.1692 91.2892 6.73287L89.3262 9.13227C89.1676 9.32622 89.0875 9.57266 89.1019 9.82282L89.2796 12.9178C89.3214 13.6449 88.5968 14.1713 87.9182 13.9069L85.0297 12.7815C84.7962 12.6905 84.5371 12.6905 84.3036 12.7815L81.415 13.9069C80.7364 14.1713 80.0119 13.6449 80.0536 12.9178L80.2314 9.82282C80.2458 9.57266 80.1657 9.32622 80.007 9.13227L78.044 6.73287C77.5829 6.1692 77.8596 5.31742 78.564 5.13245L81.5625 4.34512C81.8048 4.28148 82.0144 4.12917 82.1499 3.91833L83.8252 1.30996Z" fill="#FFCE22"/>
</svg>
