<svg width="44" height="44" viewBox="0 0 44 44" fill="none" xmlns="http://www.w3.org/2000/svg">
<rect width="44" height="44" rx="22" fill="#FFD400"/>
<path d="M13.875 13.875C13.5298 13.875 13.25 14.1548 13.25 14.5C13.25 14.8452 13.5298 15.125 13.875 15.125H15.0297C15.1713 15.125 15.2952 15.2202 15.3317 15.357L17.4631 23.3499C16.1182 23.6988 15.125 24.9209 15.125 26.375C15.125 26.7202 15.4048 27 15.75 27H28.875C29.2202 27 29.5 26.7202 29.5 26.375C29.5 26.0298 29.2202 25.75 28.875 25.75H16.4817C16.7391 25.0218 17.4336 24.5 18.25 24.5H27.5985C27.8376 24.5 28.0557 24.3637 28.1604 24.1488C29.1064 22.2075 29.9319 20.1967 30.6273 18.126C30.6826 17.9613 30.6668 17.781 30.5837 17.6283C30.5007 17.4757 30.3578 17.3645 30.1894 17.3215C26.1712 16.2953 21.9614 15.75 17.625 15.75C17.3268 15.75 17.0292 15.7526 16.7322 15.7577L16.5395 15.0349C16.3571 14.3509 15.7376 13.875 15.0297 13.875H13.875Z" fill="#262626"/>
<path d="M15.125 28.875C15.125 28.1846 15.6846 27.625 16.375 27.625C17.0654 27.625 17.625 28.1846 17.625 28.875C17.625 29.5654 17.0654 30.125 16.375 30.125C15.6846 30.125 15.125 29.5654 15.125 28.875Z" fill="#262626"/>
<path d="M25.75 28.875C25.75 28.1846 26.3096 27.625 27 27.625C27.6904 27.625 28.25 28.1846 28.25 28.875C28.25 29.5654 27.6904 30.125 27 30.125C26.3096 30.125 25.75 29.5654 25.75 28.875Z" fill="#262626"/>
</svg>
